<svg xmlns="http://www.w3.org/2000/svg" viewBox="0 0 512 512" width="512" height="512"><path fill="#ffffff" d="M259.3 507.4C258.6 505.4 259.7 478.1 260.6 475.7C260.9 474.8 260.8 474.0 260.4 474.0C259.9 474.0 256.5 481.1 252.7 489.8C249.0 498.4 245.5 506.2 245.0 507.0C243.1 510.0 241.1 505.6 236.5 489.0C234.0 480.0 231.8 472.4 231.6 472.3C231.1 471.8 230.2 480.3 229.5 491.5C228.5 507.3 228.6 507.0 223.4 507.0C217.4 507.0 217.5 507.6 219.4 481.3C221.8 449.1 220.9 452.0 227.8 452.0C238.0 452.0 237.4 451.4 241.4 467.7C243.4 475.8 245.1 482.4 245.3 482.6C245.5 482.8 248.1 476.6 251.1 468.7L256.5 454.5L263.8 454.2C269.9 454.0 271.1 454.2 271.7 455.6C272.4 457.4 270.3 502.7 269.3 506.8C268.6 509.6 260.4 510.1 259.3 507.4ZM282.6 507.9C281.6 505.1 278.1 454.5 278.8 453.9C280.0 452.8 306.3 450.9 307.3 451.9C307.7 452.3 308.0 454.9 307.8 457.6L307.5 462.5L301.0 462.8C290.6 463.2 290.0 463.4 290.0 467.9C290.0 474.7 290.2 474.9 299.0 474.3L306.8 473.7L307.5 478.3C308.3 483.8 307.7 485.0 304.1 485.0C302.5 485.0 299.2 485.3 296.6 485.6L292.0 486.3L292.0 491.0C292.0 497.0 291.5 496.7 301.6 495.8C311.7 494.9 313.0 495.5 313.0 501.0C313.0 505.9 311.9 506.6 303.0 507.3C298.9 507.7 292.7 508.3 289.3 508.6C284.4 509.1 282.9 509.0 282.6 507.9ZM323.1 499.3C321.9 494.9 315.4 465.2 313.8 456.7C312.4 449.7 312.6 449.4 321.6 447.5C337.4 444.1 346.1 448.2 352.4 462.0C361.1 481.1 354.4 496.3 335.3 500.5C331.6 501.4 327.5 502.3 326.3 502.5C324.4 502.9 323.9 502.4 323.1 499.3ZM180.0 499.7C167.3 495.7 160.5 476.8 166.5 462.4C180.0 430.0 221.2 443.9 212.6 478.0C208.3 495.2 194.6 504.3 180.0 499.7ZM195.7 485.6C205.8 474.7 202.5 455.0 190.6 455.0C177.0 455.0 171.0 483.7 183.5 489.1C187.3 490.7 192.3 489.3 195.7 485.6ZM340.7 487.5C347.1 483.3 345.0 465.1 337.4 459.1C334.6 456.9 329.6 456.4 327.1 457.9C325.8 458.7 328.8 478.6 331.7 488.4C332.3 490.5 336.7 490.1 340.7 487.5ZM376.3 482.2C375.2 479.6 373.5 475.3 372.5 472.7C371.0 468.7 368.2 465.5 357.8 455.7C350.8 449.0 345.0 443.3 345.0 442.9C345.0 442.6 347.5 441.1 350.5 439.6L356.0 436.8L363.2 444.6L370.5 452.3L371.0 440.9L371.5 429.5L376.9 427.7C383.9 425.4 384.0 425.4 382.4 440.0C380.3 460.6 380.4 462.7 385.0 473.0C389.9 484.0 389.8 483.6 385.4 485.5C379.6 487.9 378.5 487.5 376.3 482.2ZM130.2 480.9C111.1 471.4 112.8 441.6 133.1 430.5C146.2 423.4 161.7 430.0 165.0 444.2C166.7 451.2 166.1 452.2 159.8 451.8C154.6 451.5 154.6 451.5 153.5 447.4C149.4 431.0 129.0 441.2 129.0 459.7C129.0 470.4 136.1 474.3 147.1 469.6C148.2 469.1 149.5 470.1 151.5 473.1L154.4 477.2L152.0 479.1C146.4 483.4 136.9 484.2 130.2 480.9ZM305.8 440.1C299.4 437.4 293.1 434.5 291.9 433.6C288.8 431.5 289.0 431.5 283.9 435.5C277.6 440.5 276.5 440.2 266.1 430.4C252.3 417.4 243.0 402.3 243.0 392.8C243.0 389.7 241.2 386.9 235.3 380.9L229.8 375.3L224.8 378.6C219.1 382.5 215.9 382.9 213.0 380.0C209.7 376.7 211.1 372.6 217.7 365.8L222.3 361.1L214.4 352.8C205.5 343.5 192.0 325.5 189.0 318.9C181.9 303.1 195.9 294.5 209.1 306.7L211.7 309.0L218.3 306.5C222.0 305.1 226.3 304.0 227.8 304.0C229.3 304.0 231.5 303.7 232.8 303.4L235.0 302.8L235.0 276.1L235.0 249.4L232.0 247.7C227.5 245.0 226.0 241.2 226.0 232.5C226.0 227.3 225.6 224.8 224.8 224.6C224.1 224.4 221.3 223.6 218.6 222.9C208.1 220.2 198.4 207.5 197.3 195.1C196.8 189.3 214.1 113.9 217.6 106.4C222.6 95.8 234.6 88.9 248.1 88.8C289.1 88.6 311.5 107.4 305.6 137.1C303.1 149.7 290.3 201.6 287.9 208.8C285.5 216.1 278.5 224.4 271.8 228.0L267.4 230.3L267.8 236.5C268.3 244.0 266.5 248.2 261.4 251.2L258.0 253.2L258.0 278.0L258.0 302.8L263.8 303.4C285.1 305.9 296.1 313.1 293.0 322.6C290.0 331.5 275.7 336.3 251.4 336.4L234.3 336.5L237.3 340.2C240.9 344.7 240.2 344.6 244.8 341.5C249.8 338.1 257.2 338.0 259.4 341.2C261.6 344.4 261.4 345.4 257.8 349.7C255.3 352.5 255.0 353.2 256.5 352.5C264.4 349.2 275.9 351.6 281.5 357.6L283.8 360.1L288.5 355.1C301.6 341.1 321.4 343.5 328.9 360.0C334.9 373.3 329.2 389.5 311.2 409.9L307.3 414.4L313.7 427.7C322.8 446.6 322.6 447.0 305.8 440.1ZM302.3 429.6C297.9 424.5 297.4 424.2 295.8 425.7C293.1 428.1 293.5 428.7 299.8 431.9C307.6 436.0 307.8 435.8 302.3 429.6ZM284.9 427.6C320.3 398.5 334.1 370.8 320.1 356.9C310.4 347.2 296.3 350.4 289.1 363.9C285.5 370.8 282.8 371.9 280.8 367.2C278.5 362.1 274.9 358.1 271.3 356.9C267.8 355.8 259.5 356.4 258.6 357.9C257.6 359.5 279.1 381.5 281.6 381.5C285.9 381.5 286.4 383.2 284.5 390.4C282.8 396.7 282.8 397.3 284.4 403.4C286.8 412.2 285.0 414.1 277.8 410.4C275.5 409.2 273.0 408.9 268.4 409.3L262.1 409.8L256.0 403.4C252.6 399.9 249.6 397.0 249.4 397.0C248.7 397.0 253.9 408.0 256.1 411.3C258.9 415.4 276.2 433.0 277.4 433.0C277.9 433.0 281.3 430.6 284.9 427.6ZM307.0 426.0C304.0 420.1 302.8 419.0 301.5 421.0C300.9 421.9 308.4 432.0 309.6 432.0C309.8 432.0 308.7 429.3 307.0 426.0ZM400.0 404.0C396.2 402.7 393.2 400.7 390.1 397.5L385.7 392.8L381.6 395.1C375.4 398.7 365.2 398.5 358.7 394.7C340.1 383.7 346.0 350.8 366.3 352.2C370.0 352.4 370.2 352.2 373.0 347.2C377.2 339.4 383.7 330.7 393.5 319.5C398.4 313.9 403.2 307.3 404.5 304.3C406.2 300.5 407.4 299.0 408.9 299.0C411.6 299.0 412.0 300.9 409.9 305.0C406.3 311.9 406.7 312.9 414.7 317.4C428.8 325.5 434.6 333.0 438.0 347.8C439.8 355.6 438.7 356.1 429.6 351.7C420.2 347.0 414.2 340.5 408.4 328.7C403.6 318.8 403.4 318.9 401.9 329.5C400.1 342.9 404.3 361.8 409.1 361.2C424.9 359.4 433.0 365.9 433.0 380.5C433.0 398.1 416.6 409.8 400.0 404.0ZM272.7 402.5C272.9 402.4 268.6 397.7 263.2 391.9C257.9 386.2 250.5 378.1 246.8 374.1C240.4 367.1 239.9 366.7 237.5 367.8C233.1 369.8 234.6 372.3 249.7 388.3L264.4 404.0L268.5 403.3C270.7 403.0 272.6 402.6 272.7 402.5ZM157.5 399.8C157.3 399.1 156.6 395.2 156.0 391.2C154.3 379.2 151.9 376.3 141.9 373.7C134.8 371.9 134.9 370.1 142.4 367.9C152.2 365.0 154.6 361.4 156.6 346.7C157.8 338.0 160.1 339.8 161.9 350.8C163.8 363.0 166.5 366.3 176.3 368.5C182.8 369.9 183.1 372.0 177.0 373.5C166.5 376.2 163.6 379.8 161.9 391.8C160.8 399.7 160.4 401.0 159.0 401.0C158.4 401.0 157.8 400.4 157.5 399.8ZM419.4 396.7C431.8 387.2 429.4 366.0 415.9 366.0C412.0 366.0 409.8 367.6 412.0 369.0C414.8 370.7 412.6 373.5 408.5 373.5C404.6 373.5 404.5 373.4 404.7 370.3C405.5 360.8 391.5 369.2 389.6 379.5C386.7 394.6 406.9 406.2 419.4 396.7ZM274.6 384.8C263.2 371.8 250.6 358.5 249.6 358.2C248.2 357.9 243.8 361.8 244.2 363.0C244.4 363.4 251.9 371.8 261.0 381.6L277.5 399.4L278.1 394.5C278.7 389.7 278.5 389.3 274.6 384.8ZM380.2 389.4C383.7 387.2 384.0 386.6 384.0 382.2C384.0 379.6 385.0 375.5 386.1 373.0L388.1 368.5L384.0 364.7C379.4 360.3 376.7 360.2 376.2 364.3C375.9 366.6 375.4 367.0 372.6 367.0C368.2 367.0 366.1 364.6 367.9 361.7C370.9 357.0 363.1 355.9 358.1 360.4C351.1 366.7 351.4 381.6 358.7 388.2C364.2 393.2 373.6 393.7 380.2 389.4ZM63.7 391.3C62.4 390.0 63.0 388.0 66.4 382.8C71.1 375.4 75.2 367.0 79.1 356.7L82.4 347.9L80.3 343.6C78.2 339.4 78.0 339.3 71.5 338.2C57.1 335.8 50.1 329.9 41.3 312.5C34.0 298.2 34.2 297.9 47.3 300.9C66.9 305.4 77.3 314.5 81.6 330.8C84.0 340.1 84.6 340.2 86.4 332.2C89.1 320.4 88.8 318.5 83.5 315.2C78.2 311.9 74.3 306.9 73.4 302.3C72.9 299.6 71.8 298.5 67.9 296.4C62.5 293.4 58.0 286.2 58.0 280.7C58.0 277.4 54.8 271.5 52.5 270.6C49.4 269.5 50.9 266.1 56.0 262.8C59.2 260.7 61.2 258.6 61.6 257.0C63.3 248.9 68.9 244.6 76.7 245.3C81.0 245.8 82.3 245.5 85.0 243.5C86.8 242.2 90.9 240.7 94.4 240.1C104.9 238.3 105.9 238.5 110.9 243.9C114.4 247.6 116.4 248.9 119.4 249.3C126.1 250.4 130.6 256.4 129.7 263.2C129.2 267.0 129.4 267.3 133.5 269.8C141.4 274.5 143.7 283.0 138.1 286.9C136.5 288.1 134.6 290.6 134.0 292.5C132.7 296.5 127.1 301.7 123.2 302.6C121.7 302.9 119.8 303.4 119.0 303.6C118.1 303.8 116.7 305.5 115.7 307.2C112.8 312.6 102.7 318.0 95.5 318.0C93.5 318.0 93.2 318.7 92.6 325.1C92.3 329.1 90.8 335.5 89.5 339.5C88.1 343.4 87.0 347.0 87.0 347.5C87.0 349.8 95.6 339.7 99.7 332.8C107.8 318.8 114.1 315.8 135.4 315.8C154.4 315.8 154.5 316.0 139.5 331.3C129.8 341.3 124.6 343.5 110.4 343.5L99.3 343.6L94.6 347.5C92.0 349.6 88.6 352.9 87.0 355.0L84.1 358.6L89.3 356.1C97.8 351.9 121.0 352.9 121.0 357.4C121.0 361.9 96.2 370.4 87.4 369.0C80.5 367.9 80.8 367.7 77.0 375.1C70.2 388.6 66.0 393.7 63.7 391.3ZM221.6 374.8C223.2 373.6 228.6 368.8 233.5 364.1C238.4 359.5 245.3 353.4 248.8 350.7C252.2 347.9 255.0 345.3 255.0 344.8C255.0 343.4 250.5 343.9 248.0 345.7C241.5 350.1 217.0 373.4 217.0 375.1C217.0 377.6 218.1 377.5 221.6 374.8ZM396.5 362.6C398.7 361.6 400.6 360.7 400.7 360.6C400.9 360.5 400.0 357.0 398.9 353.0C396.8 345.5 396.5 328.0 398.4 322.5C400.3 317.2 381.1 342.1 377.5 349.7C374.4 356.1 374.4 356.0 377.5 356.0C381.6 356.0 386.6 358.6 389.1 361.9C390.4 363.6 391.6 364.9 392.0 364.7C392.3 364.5 394.3 363.6 396.5 362.6ZM103.5 361.9C112.2 359.0 111.9 357.6 102.8 358.2C96.4 358.6 87.0 361.8 87.0 363.5C87.0 364.8 97.7 363.7 103.5 361.9ZM231.8 352.5L236.5 348.1L234.3 345.8L232.0 343.6L227.5 348.0C222.8 352.7 222.3 353.9 224.2 355.8C226.0 357.6 226.8 357.3 231.8 352.5ZM456.7 348.8C456.5 348.1 458.2 343.0 460.6 337.5C466.2 324.6 466.2 324.5 459.8 322.4C453.4 320.4 452.4 319.7 445.4 313.0C437.3 305.2 438.4 303.2 449.8 305.0C458.4 306.4 461.7 308.5 464.7 314.4C467.6 320.2 468.3 319.7 470.4 310.3C472.9 299.2 472.8 299.1 464.8 294.0C455.8 288.2 444.0 272.2 444.0 265.5C444.0 261.8 455.8 266.1 462.9 272.5C467.1 276.3 473.0 286.8 473.0 290.4C473.0 295.8 475.0 289.4 476.4 279.7C478.2 266.4 478.6 267.4 468.7 260.0C456.0 250.6 444.2 232.4 448.2 228.4C452.2 224.3 469.3 237.3 474.7 248.5L478.1 255.5L477.7 242.5C477.0 223.5 476.2 222.0 462.5 216.7C450.9 212.2 441.2 203.4 435.7 192.2C432.5 185.8 434.1 185.1 443.6 188.6C454.9 192.7 472.0 207.5 472.0 213.1C472.0 213.6 472.4 214.0 472.9 214.0C474.6 214.0 471.7 205.9 467.8 199.7C449.6 170.6 442.4 136.4 458.3 154.1C470.4 167.6 473.6 175.0 475.0 193.0C475.6 199.3 476.7 206.7 477.5 209.4C478.3 212.1 479.0 216.3 479.0 218.7C479.0 227.6 480.7 222.6 481.3 211.8C482.1 198.5 484.9 191.4 492.4 184.1C498.2 178.4 499.0 179.1 499.0 190.5C499.0 203.2 496.0 212.5 488.0 225.0C483.0 232.7 482.0 235.0 482.4 237.4C482.7 239.0 483.0 244.1 483.0 248.9L483.0 257.5L485.4 251.8C489.1 242.7 492.9 237.0 499.8 229.8C510.3 218.9 513.5 221.4 509.4 237.3C506.3 249.5 499.2 259.4 485.9 270.5C482.8 273.1 482.1 274.3 481.5 279.0C481.2 282.0 480.2 287.0 479.5 290.0C478.6 293.8 478.5 294.9 479.3 293.6C488.6 278.8 512.0 263.6 512.0 272.5C512.0 281.1 497.4 299.1 484.2 307.0C475.4 312.2 475.3 312.3 470.0 327.5C463.7 345.3 461.5 350.0 459.2 350.0C458.1 350.0 457.0 349.4 456.7 348.8ZM223.8 343.8C227.7 339.6 228.0 338.9 226.8 337.1C224.9 334.0 222.9 334.5 218.2 339.3L213.9 343.6L216.1 346.4C218.6 349.6 218.5 349.7 223.8 343.8ZM431.8 344.2C429.7 336.2 424.6 329.8 416.3 324.6C410.8 321.2 410.8 321.2 413.2 326.8C417.0 335.3 428.5 348.0 432.6 348.0C432.7 348.0 432.4 346.3 431.8 344.2ZM215.9 333.9L220.4 328.9L217.8 326.3L215.1 323.7L210.1 327.9C204.1 332.9 204.2 332.6 207.7 336.2C211.0 339.7 210.6 339.8 215.9 333.9ZM124.7 336.0C128.6 334.3 139.5 325.2 138.7 324.4C137.9 323.5 114.8 333.7 110.0 336.9C107.1 338.9 120.2 338.1 124.7 336.0ZM71.0 330.0C69.0 327.1 55.3 316.3 48.9 312.6L45.7 310.7L48.1 315.0C53.7 325.0 63.7 332.7 71.3 332.9C73.0 333.0 73.0 332.8 71.0 330.0ZM126.0 323.2L134.5 319.9L128.5 320.5C119.7 321.4 113.3 323.8 109.4 327.6C104.5 332.6 105.2 333.2 111.8 329.7C114.9 328.0 121.3 325.1 126.0 323.2ZM258.8 331.0C275.6 329.2 289.5 323.3 287.7 318.7C286.3 315.1 269.5 309.1 260.8 309.0C258.7 309.0 258.0 309.6 257.5 312.0C255.7 320.3 237.3 320.3 235.5 312.0C234.7 308.6 233.4 308.5 222.3 311.6C215.1 313.6 215.1 314.1 221.6 321.9L227.3 328.9L234.4 330.0C238.3 330.6 242.2 331.3 243.0 331.4C245.9 332.1 249.2 332.0 258.8 331.0ZM206.8 323.7C211.6 318.9 211.8 318.0 209.1 315.5C207.2 313.8 206.9 313.9 202.6 317.5C197.6 321.6 197.2 322.5 199.6 325.8C201.6 328.8 201.9 328.7 206.8 323.7ZM74.0 323.9C70.6 317.6 61.1 310.1 54.1 308.0C49.6 306.7 50.3 308.1 55.8 311.3C58.4 312.9 63.7 316.8 67.5 320.0C75.5 326.7 75.5 326.7 74.0 323.9ZM332.1 320.6C328.1 319.2 323.5 316.9 322.0 315.5L319.2 312.8L319.5 298.2C319.7 287.9 320.3 282.2 321.4 279.1C323.7 272.9 323.5 272.3 318.5 270.1C311.2 266.9 309.4 260.5 313.0 250.8C314.5 246.7 314.7 244.6 314.1 241.7C313.1 237.6 313.8 233.8 316.3 229.9C317.1 228.6 318.3 224.6 319.0 221.0C326.7 179.9 388.6 170.8 412.9 207.1C423.7 223.2 424.0 246.1 413.7 265.4C409.7 273.0 399.6 283.4 393.7 286.0C389.0 288.1 388.0 289.4 388.0 293.9C388.0 301.2 385.3 306.4 379.8 309.7C358.1 322.7 346.6 325.4 332.1 320.6ZM459.4 314.9C457.1 312.3 452.7 310.0 450.3 310.0C449.3 310.0 451.0 311.7 454.5 314.0C460.7 318.1 462.6 318.5 459.4 314.9ZM200.3 312.2C202.5 309.9 202.8 309.1 201.8 308.3C196.5 304.2 191.1 308.9 193.6 315.4C194.3 317.3 196.4 316.4 200.3 312.2ZM365.6 310.6C381.2 303.0 380.7 303.6 383.0 290.8C384.1 285.1 385.2 279.5 385.6 278.3C386.2 276.2 386.0 276.0 382.9 276.7C375.9 278.0 375.8 278.1 373.3 288.5C370.9 298.7 369.0 302.0 365.8 302.0C363.8 302.0 363.5 299.9 365.0 296.9C366.2 294.7 365.4 294.5 361.5 296.0C360.1 296.5 358.5 298.1 358.0 299.5C356.8 302.7 354.2 302.7 353.4 299.5C352.5 296.1 349.4 296.2 348.5 299.7C347.0 305.8 344.0 306.2 344.0 300.4C344.0 296.0 340.0 295.7 339.0 300.0C338.1 303.7 335.6 303.2 335.2 299.2C334.8 295.4 332.0 294.7 332.0 298.4C332.0 303.4 328.8 302.2 327.5 296.7C326.2 291.5 325.5 293.2 325.5 302.1C325.5 312.3 326.0 313.1 333.5 315.4C344.6 318.7 351.3 317.7 365.6 310.6ZM100.8 311.5C106.5 309.8 111.7 305.9 110.6 304.2C110.1 303.4 109.1 303.4 106.9 304.2C102.3 305.8 95.0 304.7 87.5 301.2C79.8 297.6 78.0 297.3 78.0 299.8C78.0 304.5 84.1 310.6 90.3 312.0C95.0 313.1 95.2 313.1 100.8 311.5ZM251.0 282.6C251.0 266.4 250.7 252.9 250.2 252.7C249.8 252.4 247.8 252.0 245.6 251.9L241.8 251.5L241.9 280.9C242.0 297.1 242.3 310.7 242.6 311.2C242.9 311.6 244.9 312.0 247.1 312.0L251.0 312.0L251.0 282.6ZM489.2 297.3C496.3 291.9 507.5 277.0 504.5 277.0C499.4 277.0 481.0 296.4 481.0 301.8C481.0 303.4 481.7 303.0 489.2 297.3ZM108.8 297.3C112.0 295.3 116.1 284.0 113.7 284.0C112.7 284.0 94.3 294.3 93.1 295.6C89.0 299.5 103.0 301.1 108.8 297.3ZM122.5 297.0C125.4 295.9 128.9 292.3 129.0 290.3C129.0 289.7 130.6 287.3 132.5 285.0C134.4 282.7 136.0 280.5 136.0 280.1C136.0 278.4 132.7 275.1 130.1 274.2C125.9 272.7 120.0 280.6 118.9 289.0C118.5 292.0 117.9 295.3 117.5 296.2C116.7 298.3 118.4 298.5 122.5 297.0ZM77.0 292.5C77.0 292.1 76.3 290.5 75.4 288.8C74.1 286.4 73.9 283.8 74.3 278.1C74.6 272.9 74.3 269.7 73.4 267.9C71.8 264.8 73.8 261.0 77.1 261.0C79.5 261.0 79.9 253.0 77.5 251.0C74.0 248.1 68.2 251.6 67.4 257.1C66.8 260.9 62.4 266.0 58.9 267.2C57.9 267.5 58.2 268.5 60.1 270.7C62.0 273.0 62.9 275.5 63.4 280.1C64.3 287.7 68.6 293.0 73.9 293.0C75.6 293.0 77.0 292.8 77.0 292.5ZM88.5 292.0C88.9 291.4 91.4 289.8 94.1 288.4C100.5 285.2 100.1 284.5 90.1 279.2C80.6 274.1 79.0 274.2 79.0 280.0C79.0 287.5 85.9 296.2 88.5 292.0ZM354.8 287.5C355.4 280.5 358.9 280.4 359.0 287.3C359.0 289.7 359.4 290.1 361.2 289.8C363.2 289.5 363.6 288.7 364.1 284.0C365.2 274.0 367.1 272.1 375.9 271.9C383.6 271.8 394.5 267.8 394.5 265.0C394.5 262.8 394.0 262.5 390.2 262.2C385.1 261.8 384.2 260.3 386.4 255.7C387.8 252.5 387.8 252.0 385.5 245.4C382.5 237.1 382.5 235.7 385.0 230.2C387.1 225.5 389.3 224.1 391.5 226.0C392.8 227.1 392.8 227.6 391.0 230.5C388.5 234.6 388.5 237.5 391.1 244.5C392.3 247.8 393.0 251.6 392.8 253.6C392.4 256.8 392.7 257.2 395.2 257.7C401.4 258.9 402.9 266.2 398.1 271.1C396.5 272.7 394.5 274.0 393.7 274.0C392.2 274.0 390.4 278.7 391.5 279.8C392.5 280.9 400.5 274.4 404.2 269.5C412.4 258.8 416.7 242.2 415.0 228.5C409.1 181.1 334.1 176.6 324.4 223.1C323.6 226.8 322.0 231.5 320.9 233.5C319.3 236.2 318.9 237.9 319.5 240.8L320.2 244.5L321.8 239.5C324.7 230.8 332.9 228.8 339.7 235.2C342.7 238.0 342.6 239.3 338.6 247.6C335.1 255.1 333.9 256.0 328.5 256.0C324.6 256.0 323.1 254.4 322.3 249.4L321.7 245.7L319.4 250.1C315.1 258.3 317.0 266.0 323.2 266.0C326.9 266.0 329.3 269.8 328.6 274.6C328.1 278.5 328.3 278.9 330.3 279.2C332.3 279.5 332.5 280.0 332.2 284.8C331.9 289.0 332.2 290.0 333.4 290.0C334.5 290.0 335.0 289.1 335.0 287.1C335.0 285.5 335.9 283.2 336.9 281.9L338.8 279.5L340.0 282.4C340.6 284.0 340.8 286.6 340.5 288.2C339.9 290.7 340.1 291.0 342.4 291.0C344.6 291.0 344.9 290.5 345.2 286.8C345.7 279.9 349.0 280.1 349.0 287.0C349.0 292.0 349.1 292.1 351.8 291.8C354.2 291.5 354.5 291.0 354.8 287.5ZM466.9 287.3C464.4 280.8 455.1 270.6 453.2 272.4C452.2 273.4 458.2 282.0 462.6 285.9C468.1 290.8 468.3 290.8 466.9 287.3ZM174.0 286.5C173.4 285.1 173.0 283.1 173.0 282.1C173.0 275.5 169.4 270.6 162.8 268.4C156.9 266.5 157.0 265.4 163.5 262.9C169.5 260.6 171.7 257.9 172.5 252.0C173.6 243.9 174.0 242.8 175.8 243.2C177.1 243.4 177.6 245.0 178.1 249.8C178.9 257.8 181.1 261.0 187.5 263.1C193.8 265.1 194.2 266.6 188.9 268.0C180.7 270.2 178.9 272.6 177.4 283.3C176.6 288.9 175.4 290.1 174.0 286.5ZM327.9 283.8C327.8 279.7 327.8 279.6 326.8 282.3C326.3 283.8 326.1 285.7 326.4 286.5C327.4 289.2 328.0 288.1 327.9 283.8ZM110.4 279.5C113.2 276.9 113.4 276.2 112.1 274.1C111.4 273.1 109.7 272.7 106.3 272.9C102.4 273.1 100.7 272.6 97.5 270.4C95.3 268.9 92.2 267.5 90.5 267.4C88.8 267.2 86.2 266.5 84.7 265.9C82.6 265.0 81.6 265.0 80.7 265.9C79.2 267.4 80.0 268.1 90.6 273.4C95.6 276.0 100.5 278.9 101.5 280.0C103.9 282.7 107.2 282.5 110.4 279.5ZM122.5 269.6C125.9 261.6 123.8 255.0 118.0 254.7C113.7 254.5 113.0 257.8 115.3 266.3C116.1 269.1 117.1 272.8 117.4 274.4C118.2 277.8 119.7 276.4 122.5 269.6ZM342.6 269.8C341.3 266.9 341.2 266.8 340.6 268.8C339.6 271.8 336.0 272.7 334.3 270.4C330.6 265.3 338.2 248.1 343.7 249.2C346.5 249.7 350.3 264.0 349.0 269.2C347.6 274.1 344.5 274.5 342.6 269.8ZM109.5 267.0C110.6 265.2 109.0 262.2 106.7 261.8C101.0 260.9 98.0 263.6 101.2 266.8C102.7 268.3 108.6 268.4 109.5 267.0ZM499.6 248.3C502.5 243.5 506.3 232.0 505.0 232.0C501.6 232.0 487.0 255.9 487.0 261.4C487.0 264.0 495.7 255.0 499.6 248.3ZM97.3 258.4C98.9 256.5 99.8 255.0 99.2 255.0C97.6 255.0 93.0 259.1 93.0 260.6C93.0 262.8 94.2 262.2 97.3 258.4ZM360.5 260.0C355.2 257.4 354.0 255.2 353.3 247.0C352.3 235.3 361.2 230.9 371.8 237.7C387.3 247.8 376.9 268.1 360.5 260.0ZM97.8 249.9C101.7 248.6 104.0 250.0 104.0 253.6C104.0 256.3 105.2 257.3 107.4 256.4C111.0 255.0 108.0 245.7 103.6 244.6C102.2 244.3 100.0 244.4 98.5 245.0C97.1 245.5 94.5 246.0 92.9 246.0C88.6 246.0 84.0 250.8 84.0 255.3C84.0 260.3 84.8 260.4 89.9 255.5C92.4 253.0 96.0 250.5 97.8 249.9ZM471.1 252.1C468.4 246.9 456.5 234.2 455.3 235.4C453.6 237.1 470.2 258.0 473.2 258.0C473.6 258.0 472.7 255.4 471.1 252.1ZM260.7 243.1C262.5 240.8 262.3 235.0 260.3 232.8C256.5 228.6 248.0 231.6 248.0 237.3C248.0 245.5 256.1 249.2 260.7 243.1ZM242.0 240.2C242.0 238.2 242.3 234.9 242.6 232.9C243.2 229.3 239.7 227.0 233.6 227.0C230.4 227.0 231.4 237.6 234.9 241.1C239.2 245.4 242.0 245.0 242.0 240.2ZM253.4 240.6C252.3 237.6 253.4 234.5 255.8 234.2C257.9 233.9 258.1 234.2 257.8 237.7C257.5 241.7 254.6 243.6 253.4 240.6ZM39.7 232.3C39.4 231.9 38.9 229.0 38.5 226.0C37.1 215.4 34.3 211.6 26.4 209.6C19.9 208.0 19.9 206.5 26.2 204.6C34.5 202.2 37.2 198.5 38.5 187.7C39.8 177.8 41.7 178.6 43.6 189.6C45.3 199.2 46.7 201.4 52.7 203.5C62.1 206.8 62.7 207.8 56.0 209.5C46.6 211.9 44.5 214.6 43.3 225.6C42.6 231.6 41.0 234.5 39.7 232.3ZM153.5 228.6C139.6 213.9 109.5 213.8 91.6 228.5C87.7 231.7 87.1 231.9 85.9 230.4C84.9 229.2 84.9 228.5 85.8 227.2C96.6 212.4 92.5 193.3 78.2 191.4C75.3 191.0 72.9 190.2 72.6 189.3C72.0 188.0 72.5 187.7 80.0 184.9C93.1 179.9 100.4 161.2 93.1 151.2C88.4 144.8 90.5 143.2 98.2 147.2C112.2 154.5 136.6 143.4 142.7 127.0C145.2 120.3 149.8 118.0 148.6 124.2C145.1 141.5 147.8 147.5 159.3 147.5C165.0 147.5 166.3 147.1 171.4 143.7C180.4 137.7 183.5 140.6 175.4 147.4C169.4 152.5 166.7 158.5 166.6 167.0C166.5 176.8 169.2 180.5 178.2 182.4C183.1 183.5 181.8 186.6 176.3 187.5C168.3 188.7 162.8 192.7 158.8 200.3C155.3 206.8 155.5 219.7 159.2 226.6C163.3 234.5 160.0 235.6 153.5 228.6ZM270.4 220.9C276.6 216.8 279.8 212.4 282.1 204.9C284.5 197.2 284.5 197.2 281.2 196.4C276.0 195.1 274.6 192.5 277.5 189.6C278.6 188.5 279.8 188.4 281.9 189.0C285.3 189.9 287.0 188.7 287.0 185.4C287.0 183.7 286.2 183.0 284.0 182.5C279.8 181.6 278.4 178.6 280.9 176.1C282.5 174.5 283.5 174.3 285.9 175.0C288.5 175.7 289.2 175.5 290.0 174.0C292.1 170.1 290.7 168.0 285.9 168.0C283.7 168.0 282.2 163.4 283.9 161.7C284.5 161.1 286.9 160.6 289.3 160.5C295.1 160.5 296.2 156.1 290.8 154.5C285.0 152.8 286.0 147.5 292.0 147.5C296.3 147.5 296.5 147.4 296.8 144.4C297.1 141.6 296.8 141.2 294.1 140.7C287.4 139.3 289.5 132.4 296.3 133.4L300.3 134.1L299.8 126.2C298.6 104.9 279.4 94.4 271.1 110.4C268.4 115.6 265.4 116.6 264.4 112.6C263.7 109.7 265.1 106.7 269.4 102.1L272.5 98.7L268.2 99.3C263.0 99.9 260.8 101.8 257.9 107.7C256.2 111.1 255.3 112.0 253.6 111.8C249.3 111.2 251.0 103.8 256.7 98.5L259.5 96.0L256.5 96.0C252.4 96.0 246.4 100.5 244.6 105.0C243.0 109.1 240.9 110.5 239.1 108.7C237.3 106.9 237.9 102.9 240.6 99.3C243.5 95.5 242.5 95.1 236.5 97.9C230.9 100.4 226.3 104.6 224.0 109.1C220.5 115.8 220.7 116.0 231.4 117.9C237.9 119.1 240.0 120.3 240.0 123.1C240.0 126.2 237.0 127.0 230.5 125.4C222.1 123.5 220.1 123.6 219.1 126.2C217.8 129.4 219.5 130.4 228.0 131.9C235.7 133.3 238.4 135.6 235.8 138.7C234.6 140.2 230.2 140.2 219.9 138.4C216.6 137.8 216.2 138.0 215.6 140.5C214.7 143.9 214.2 143.6 222.9 145.4C230.8 147.1 233.0 148.3 233.0 151.0C233.0 154.6 230.8 155.1 222.0 153.4C213.1 151.7 212.0 152.1 212.0 156.6C212.0 158.5 212.9 158.9 219.6 160.0C229.2 161.7 231.5 163.6 228.6 167.6C227.2 169.4 227.0 169.5 218.5 167.7C208.7 165.7 209.2 165.6 208.4 169.7C207.8 172.8 207.8 172.8 213.6 174.0C224.5 176.2 225.5 176.5 225.8 178.6C226.4 182.6 223.9 183.3 214.6 181.8C204.8 180.1 205.2 179.7 204.3 189.6C203.6 197.4 205.8 204.3 210.6 209.6C212.8 212.0 213.9 212.7 213.5 211.5C210.5 203.0 212.2 191.6 216.3 192.2C218.3 192.5 218.5 193.1 218.7 200.3C218.8 208.7 220.6 213.0 224.9 215.9C227.3 217.5 227.3 217.4 226.6 215.0C224.4 208.4 224.7 196.2 226.9 195.5C230.4 194.4 232.0 196.6 231.4 201.4C230.3 209.2 235.2 221.0 239.6 221.0C240.8 221.0 240.8 220.5 239.3 217.8C238.2 215.6 237.6 212.0 237.6 207.0L237.5 199.5L240.5 199.5L243.5 199.5L244.0 207.0C244.5 214.7 247.1 220.8 250.8 223.0C254.8 225.3 265.4 224.2 270.4 220.9ZM489.9 211.0C493.2 202.6 495.4 190.7 493.6 191.3C490.2 192.4 486.8 202.7 485.5 215.5C484.7 222.8 485.7 221.8 489.9 211.0ZM126.8 212.5C130.8 212.8 136.9 214.0 140.3 215.0C147.8 217.3 147.8 217.3 143.9 212.1C136.2 201.4 116.1 201.2 105.7 211.8L100.9 216.6L110.2 214.2C117.7 212.3 120.9 212.0 126.8 212.5ZM104.7 203.5C110.0 193.6 103.0 186.5 91.2 189.6L88.9 190.3L90.9 192.4C93.8 195.4 95.7 200.6 96.5 207.5L97.3 213.4L100.2 210.0C101.8 208.1 103.8 205.2 104.7 203.5ZM154.5 197.9C155.5 196.0 157.8 192.8 159.8 190.8L163.4 187.0L157.9 187.0C146.3 187.0 141.8 196.2 147.7 208.0L150.4 213.4L151.6 207.3C152.3 204.0 153.6 199.7 154.5 197.9ZM463.4 208.5C460.0 204.3 446.1 194.0 443.9 194.0C440.5 194.0 452.5 205.8 460.0 209.9C467.3 214.0 467.8 213.8 463.4 208.5ZM134.2 198.5C133.7 197.5 128.3 190.3 126.9 188.7C126.3 187.9 118.5 195.4 116.8 198.4C116.3 199.3 118.5 199.6 125.5 199.5C131.4 199.5 134.6 199.1 134.2 198.5ZM141.0 193.8C141.0 192.9 142.2 190.8 143.6 189.1L146.2 186.0L139.1 186.0C130.8 186.0 131.0 185.7 135.8 192.4C139.3 197.5 140.9 198.0 141.0 193.8ZM116.3 191.6C120.9 186.0 121.1 186.3 114.2 186.8C107.3 187.3 107.4 187.3 109.4 190.2C110.3 191.4 111.0 193.2 111.0 194.2C111.0 197.0 112.3 196.4 116.3 191.6ZM469.1 185.2C467.7 177.2 463.4 168.0 458.6 162.5L455.1 158.5L456.6 163.9C459.4 173.7 469.1 195.1 469.8 193.1C470.0 192.4 469.7 188.9 469.1 185.2ZM254.0 190.0C238.6 187.3 235.6 186.1 235.2 182.7C234.7 178.6 236.9 178.4 250.2 181.5C270.2 186.1 271.7 186.9 267.8 190.8C266.4 192.2 267.0 192.3 254.0 190.0ZM100.7 182.1C107.0 179.2 109.0 172.7 105.6 166.1C103.4 162.0 101.0 160.2 101.0 162.7C101.0 166.9 97.8 174.9 94.5 179.3L90.9 184.0L93.7 184.0C95.2 184.0 98.4 183.1 100.7 182.1ZM120.0 181.0C120.0 179.7 114.0 173.0 112.9 173.0C112.4 173.0 112.0 173.7 112.0 174.5C112.0 175.4 111.3 177.4 110.5 179.0L108.9 182.0L114.5 182.0C117.5 182.0 120.0 181.6 120.0 181.0ZM165.0 181.4C165.0 181.1 164.5 179.9 163.8 178.7C163.1 177.5 162.3 172.4 162.0 167.3L161.5 158.1L156.6 162.4C147.8 170.0 148.9 180.3 158.5 181.3C160.7 181.5 163.1 181.7 163.8 181.8C164.4 181.9 165.0 181.7 165.0 181.4ZM146.6 178.8C146.3 177.5 146.0 175.5 146.0 174.2C146.0 171.2 145.2 171.4 139.5 176.5L134.6 181.0L140.9 181.0C147.0 181.0 147.2 180.9 146.6 178.8ZM254.0 175.1L239.5 171.4L239.5 168.4C239.5 164.4 241.5 164.3 254.7 167.5C273.5 172.0 273.0 171.8 273.0 174.5C273.0 176.5 270.3 179.3 268.8 178.9C268.6 178.9 262.0 177.1 254.0 175.1ZM344.6 176.3C344.3 174.8 343.8 171.7 343.4 169.5C342.2 162.2 339.9 159.5 333.4 157.9C327.7 156.4 327.7 154.4 333.5 152.9C339.7 151.3 342.7 147.6 343.6 140.3C344.7 130.8 347.4 129.5 348.5 137.8C349.6 145.1 352.5 150.6 356.3 152.0C365.6 155.5 365.7 155.6 358.3 158.0C352.3 159.9 349.9 163.3 348.6 171.6C347.4 178.7 345.5 181.0 344.6 176.3ZM127.4 172.0C129.5 166.2 129.3 165.6 125.6 167.0C124.1 167.5 121.6 168.1 120.0 168.2C116.2 168.5 116.2 168.6 120.7 173.2C125.4 178.0 125.2 178.0 127.4 172.0ZM138.7 170.6L142.0 167.7L139.0 165.8C135.0 163.5 135.4 163.2 133.4 169.2C132.5 172.1 131.5 175.2 131.2 176.0C130.6 177.6 132.7 176.1 138.7 170.6ZM258.5 161.1C243.0 157.1 242.0 156.7 242.0 154.1C242.0 149.6 244.3 149.5 259.1 153.3C273.9 157.1 276.0 158.1 276.0 161.1C276.0 164.8 273.0 164.8 258.5 161.1ZM127.0 160.1C130.1 157.8 137.5 145.2 136.5 144.2C136.3 144.0 134.6 144.9 132.8 146.3C125.2 152.0 113.2 155.8 106.3 154.7C102.1 154.0 102.1 154.8 106.7 158.4C114.3 164.5 120.6 165.0 127.0 160.1ZM151.5 159.9C153.2 158.9 155.8 156.9 157.5 155.5L160.5 153.0L157.7 153.0C153.5 153.0 148.3 150.2 145.1 146.3L142.2 142.8L140.6 147.6C136.3 160.4 141.5 166.3 151.5 159.9ZM19.1 138.0L-0.2 118.0L5.7 111.5C17.3 98.5 25.2 95.9 34.5 102.2C44.5 108.9 45.6 119.4 37.3 129.5L32.7 135.1L40.0 142.6L47.3 150.1L43.5 154.1C41.3 156.2 39.3 158.0 39.0 158.0C38.6 158.0 29.7 149.0 19.1 138.0ZM471.4 150.0C462.5 148.0 455.8 139.8 455.8 131.1C455.8 124.6 456.3 124.0 462.1 124.0L467.0 124.0L467.0 127.9C467.0 136.3 475.8 142.3 479.6 136.4C480.8 134.6 480.6 133.6 477.3 126.9C471.7 115.4 472.7 107.2 480.1 101.9C491.2 94.0 507.0 103.4 507.0 118.0C507.0 123.8 506.0 124.7 500.4 123.3C497.0 122.6 496.7 122.2 496.5 118.6C496.1 111.3 486.9 106.7 486.2 113.4C486.0 115.1 487.2 119.3 489.1 123.6C491.6 129.5 492.2 131.9 491.8 135.5C490.7 145.0 480.6 152.2 471.4 150.0ZM260.2 146.5C245.3 142.7 245.0 142.6 245.0 140.1C245.0 136.0 247.3 135.7 258.7 138.5C277.0 142.8 279.0 143.7 279.0 147.1C279.0 150.9 277.6 150.8 260.2 146.5ZM263.6 132.1C249.4 128.3 246.5 126.6 249.0 123.4C250.7 121.4 253.4 121.6 265.6 124.5C279.8 127.8 282.0 129.1 282.0 133.8C282.0 136.7 280.6 136.6 263.6 132.1ZM64.5 126.3C39.7 96.6 33.7 89.3 33.3 88.2C32.7 86.8 38.7 80.0 40.4 80.0C41.6 80.0 41.2 79.6 62.0 105.4L76.4 123.2L72.7 126.6C68.2 130.7 68.2 130.7 64.5 126.3ZM434.7 121.8C428.3 117.2 423.0 113.1 423.0 112.7C423.0 110.8 455.5 68.5 457.0 68.5C458.9 68.5 479.9 84.6 479.9 86.2C480.0 88.0 475.4 94.0 474.0 94.0C473.5 94.0 470.1 91.8 466.5 89.0C458.6 83.1 458.9 83.1 455.6 87.4C452.0 92.2 452.2 93.0 458.5 97.3C464.7 101.6 464.8 101.9 461.9 106.6C459.3 110.9 458.1 110.9 451.2 105.9L445.5 101.9L442.2 105.6C438.0 110.5 437.9 110.2 446.0 115.7C453.9 121.2 453.9 121.2 450.5 126.3C447.2 131.0 448.2 131.3 434.7 121.8ZM28.9 123.5C37.2 114.0 26.2 104.9 17.5 114.0L14.8 116.8L19.5 121.9C25.2 128.0 25.0 127.9 28.9 123.5ZM79.3 115.7C74.3 110.3 49.0 74.7 49.0 73.1C49.0 71.5 57.3 65.0 59.3 65.0C61.3 65.0 78.2 74.4 86.8 80.3C89.2 81.9 91.3 83.0 91.5 82.8C91.7 82.6 87.3 76.4 81.8 69.1L71.7 55.7L75.6 52.4C77.8 50.6 80.0 49.1 80.5 49.0C81.0 49.0 88.6 59.0 97.3 71.2L113.0 93.4L108.8 97.2C103.1 102.1 103.6 102.2 87.5 92.9C68.5 82.0 69.6 82.5 70.5 84.2C71.0 84.9 75.4 91.1 80.3 97.9C90.1 111.2 90.1 111.2 84.4 115.7L81.3 118.0L79.3 115.7ZM405.5 102.0C398.9 97.6 393.6 93.4 393.8 92.8C394.1 91.7 420.7 47.1 421.6 46.1C422.1 45.5 427.2 47.8 429.9 49.9L432.3 51.7L429.3 56.1C424.3 63.5 409.0 88.8 409.0 89.7C409.0 90.1 412.6 92.7 417.0 95.4C426.1 100.9 426.1 100.9 421.9 106.1C418.0 111.0 419.6 111.4 405.5 102.0ZM114.8 84.9C110.3 82.6 110.2 81.7 113.5 76.7C116.4 72.6 116.7 72.4 119.4 74.5C123.8 77.8 133.4 75.2 134.6 70.3C135.9 65.2 131.9 62.7 124.5 64.1C109.2 67.1 99.5 61.4 99.5 49.5C99.5 37.5 113.4 28.8 125.5 33.4C130.6 35.4 131.0 36.7 127.5 40.8C125.3 43.5 124.6 43.7 120.1 43.2C115.8 42.8 114.8 43.1 112.6 45.3C106.8 51.1 110.2 53.3 123.9 52.4C139.3 51.5 145.5 56.1 145.5 68.5C145.5 82.7 128.1 92.0 114.8 84.9ZM365.1 81.0C353.7 77.0 354.0 78.1 360.0 62.8C375.9 22.6 374.7 24.3 385.7 28.7C403.3 35.7 408.4 47.9 401.3 65.7C394.5 82.8 383.4 87.5 365.1 81.0ZM333.8 70.2C322.0 67.1 320.0 66.3 320.0 64.6C320.0 63.0 327.5 33.9 332.2 17.3C333.8 11.8 333.8 11.8 345.5 15.2C351.0 16.7 357.2 18.5 359.4 19.1C363.2 20.1 363.2 20.2 362.7 24.2C361.7 31.6 360.5 31.7 344.2 26.6C342.5 26.0 342.0 26.7 340.6 30.6C338.6 36.5 338.5 36.3 347.5 38.9C355.6 41.3 356.0 41.9 353.9 47.9C352.6 51.6 351.4 51.7 343.1 49.1C338.7 47.7 336.8 47.5 336.2 48.4C335.2 49.6 333.0 55.7 333.0 57.1C333.0 57.5 337.1 59.1 342.0 60.6C351.9 63.6 352.3 64.1 349.6 70.5C348.8 72.4 348.0 74.0 347.8 73.9C347.6 73.9 341.3 72.2 333.8 70.2ZM383.5 71.2C389.5 67.5 394.9 51.8 391.9 46.4C390.4 43.5 383.2 39.4 381.9 40.7C380.8 41.8 370.0 67.9 370.0 69.5C370.0 72.8 379.1 73.8 383.5 71.2ZM178.5 67.1C167.8 64.4 164.2 54.3 170.0 42.9L172.1 38.8L168.7 35.5C159.3 26.3 166.3 12.0 180.2 12.0C192.3 12.0 198.2 24.6 190.6 34.4L188.1 37.8L191.5 40.4C195.2 43.3 197.0 43.7 197.0 41.7C197.0 38.1 199.5 36.7 203.6 38.0C209.2 39.8 209.4 40.3 207.0 45.0L204.8 49.3L209.4 53.9C215.1 59.7 215.1 59.6 208.5 61.1C203.6 62.2 202.8 62.1 201.0 60.5C199.1 58.8 198.9 58.8 196.6 61.3C192.1 66.2 184.5 68.6 178.5 67.1ZM299.0 62.4C294.3 61.7 288.6 60.8 286.2 60.5C282.2 59.9 282.0 59.7 282.0 56.5C282.0 51.5 289.8 6.8 290.9 5.7C291.4 5.2 297.1 5.6 305.6 6.9C313.3 8.1 319.8 9.0 320.2 9.0C321.2 9.0 321.2 14.6 320.3 17.9C319.8 20.0 319.3 20.2 315.6 19.6C313.3 19.3 308.7 18.7 305.4 18.4L299.3 17.7L298.6 22.5C297.7 28.3 297.6 28.3 306.7 29.7C315.8 31.1 315.6 30.9 314.4 36.8C313.4 42.1 313.2 42.2 301.8 40.6L296.1 39.9L295.5 44.4C294.6 50.4 294.7 50.5 305.0 51.9C313.9 53.2 314.0 53.2 314.0 56.0C314.0 64.2 313.1 64.6 299.0 62.4ZM233.4 57.5C233.1 56.7 233.0 44.2 233.2 29.8L233.6 3.5L240.4 3.5L247.3 3.5L255.1 20.0L263.0 36.5L263.0 20.4C263.0 2.4 262.8 3.0 270.0 3.0C275.2 3.0 275.4 5.0 274.3 35.1L273.5 58.5L267.5 58.5L261.5 58.5L253.3 42.1C248.8 33.1 244.8 25.5 244.4 25.1C244.1 24.8 243.9 31.2 244.0 39.5C244.4 61.0 244.9 59.0 239.0 59.0C235.5 59.0 233.8 58.6 233.4 57.5ZM188.1 55.0L190.5 53.0L186.5 49.5C181.7 45.3 180.5 45.2 178.7 48.8C175.4 55.1 182.5 59.8 188.1 55.0ZM182.8 28.6C183.7 26.6 183.6 25.7 182.1 23.9C178.7 19.7 173.5 24.0 176.5 28.6C178.5 31.7 181.4 31.7 182.8 28.6Z"/></svg>